# xmcd
#
# Track frame offsets:
#	150
#	16977
#	27864
#	39832
#	55090
#	66104
#	77994
#	93491
#	108525
#	120521
#	131129
#	143375
#	171916
#	184752
#	196060
#	212918
#	225866
#	238404
#
# Disc length: 3350 seconds
#
# Revision: 1
# Processed by: cddbd v1.5.1PL0 Copyright (c) Steve Scherf et al.
# Submitted via: audiograbber 1.83.01
#
DISCID=ee0d1412
DTITLE=Ike and Tina Turner - Sing The Blues
DYEAR=2003
DGENRE=
TTITLE0=Ike and Tina Turner - I´ve Been Loving You Too Long
TTITLE1=Ike and Tina Turner - Mean Old World
TTITLE2=Ike and Tina Turner - Three O'Clock In The Morning Blues
TTITLE3=Ike and Tina Turner - Five Long Years
TTITLE4=Ike and Tina Turner - Dust My Broom
TTITLE5=Ike and Tina Turner - Grumbling
TTITLE6=Ike and Tina Turner - I Am A Motherless Child
TTITLE7=Ike and Tina Turner - Crazy About You Baby
TTITLE8=Ike and Tina Turner - Reconsider Baby
TTITLE9=Ike and Tina Turner - Honest I Do
TTITLE10=Ike and Tina Turner - Rock Me Baby
TTITLE11=Ike and Tina Turner - The Hunter
TTITLE12=Ike and Tina Turner - You Got Me Running
TTITLE13=Ike and Tina Turner - Bold Soul Sister
TTITLE14=Ike and Tina Turner - I Smell Trouble
TTITLE15=Ike and Tina Turner - Early Morning
TTITLE16=Ike and Tina Turner - You´re Still My Baby
TTITLE17=Ike and Tina Turner - I Know
EXTD=
EXTT0=
EXTT1=
EXTT2=
EXTT3=
EXTT4=
EXTT5=
EXTT6=
EXTT7=
EXTT8=
EXTT9=
EXTT10=
EXTT11=
EXTT12=
EXTT13=
EXTT14=
EXTT15=
EXTT16=
EXTT17=
PLAYORDER=
